<svg xmlns="http://www.w3.org/2000/svg" xmlns:xlink="http://www.w3.org/1999/xlink" version="1.1" x="0px" y="0px" viewBox="0 0 100 125" enable-background="new 0 0 100 100" xml:space="preserve"><path d="M76.292,31.377C76.292,12.224,60.165,5.086,50,5.086c-10.165,0-26.292,7.138-26.292,26.291v17.79h-5.477v45.746h63.537  V49.167h-5.477V31.377z M54,80.086h-8l1.307-9.799C45.922,69.398,45,67.854,45,66.086c0-2.761,2.239-5,5-5s5,2.239,5,5  c0,1.768-0.922,3.312-2.307,4.201L54,80.086z M67.528,49.167H32.473v-17.79C32.473,14.326,49.825,13.85,50,13.85  c0.175,0,17.527,0.477,17.527,17.527V49.167z"/></svg>